# xmcd
#
# Track frame offsets: 
#        182
#        14995
#        29702
#        49410
#        66000
#        80975
#        95862
#        109332
#        126890
#        141302
#
# Disc length: 2089 seconds
#
# Revision: 2
# Processed by: cddbd v1.5.2PL0 Copyright (c) Steve Scherf et al.
# Submitted via: ExactAudioCopy v1.3
#
DISCID=a408270a
DTITLE=The Bellamy Brothers - Greatest Hits - Vol. 1
DYEAR=1995
DGENRE=Country
TTITLE0=Let Your Love Flow
TTITLE1=If I Said You Had A Beautiful Body Would You Hold It Against M
TTITLE1=e
TTITLE2=You Ain't Just Whistlin' Dixie
TTITLE3=Sugar Daddy
TTITLE4=Dancin' Cowboys
TTITLE5=Lovers Live Longer
TTITLE6=Do You Love As Good As You Look
TTITLE7=For All The Wrong Reasons
TTITLE8=Get Into Reggae Cowboy
TTITLE9=Redneck Girl
EXTD=YEAR: 1995 ID3G: 2
EXTT0=
EXTT1=
EXTT2=
EXTT3=
EXTT4=
EXTT5=
EXTT6=
EXTT7=
EXTT8=
EXTT9=
PLAYORDER=
